<?xml version="1.0" standalone="no"?>
<!DOCTYPE svg PUBLIC "-//W3C//DTD SVG 20010904//EN"
 "http://www.w3.org/TR/2001/REC-SVG-20010904/DTD/svg10.dtd">
<svg version="1.0" xmlns="http://www.w3.org/2000/svg"
 width="48.000000pt" height="48.000000pt" viewBox="0 0 48.000000 48.000000"
 preserveAspectRatio="xMidYMid meet">

<g transform="translate(0.000000,48.000000) scale(0.100000,-0.100000)"
fill="rgb(0,0,0,0.54)" stroke="none">
<path d="M0 240 l0 -240 240 0 240 0 0 240 0 240 -240 0 -240 0 0 -240z m168
30 l3 -74 79 79 c63 62 82 77 92 67 9 -9 3 -22 -32 -57 l-44 -45 44 -45 c34
-35 41 -48 32 -57 -9 -9 -22 -2 -57 32 l-45 44 -44 -43 c-24 -24 -49 -40 -55
-37 -12 8 -16 198 -4 210 18 18 28 -7 31 -74z"/>
</g>
</svg>
